<?xml version="1.0" encoding="UTF-8" standalone="no"?>
<!-- Created with Inkscape (http://www.inkscape.org/) -->

<svg
   xmlns:dc="http://purl.org/dc/elements/1.1/"
   xmlns:cc="http://creativecommons.org/ns#"
   xmlns:rdf="http://www.w3.org/1999/02/22-rdf-syntax-ns#"
   xmlns:svg="http://www.w3.org/2000/svg"
   xmlns="http://www.w3.org/2000/svg"
   xmlns:sodipodi="http://sodipodi.sourceforge.net/DTD/sodipodi-0.dtd"
   xmlns:inkscape="http://www.inkscape.org/namespaces/inkscape"
   id="svg2"
   version="1.1"
   inkscape:version="0.91 r13725"
   xml:space="preserve"
   width="20"
   height="20"
   viewBox="0 0 20 20"
   sodipodi:docname="design.svg"><metadata
     id="metadata8"><rdf:RDF><cc:Work
         rdf:about=""><dc:format>image/svg+xml</dc:format><dc:type
           rdf:resource="http://purl.org/dc/dcmitype/StillImage" /><dc:title></dc:title></cc:Work></rdf:RDF></metadata><defs
     id="defs6" /><sodipodi:namedview
     pagecolor="#ffffff"
     bordercolor="#666666"
     borderopacity="1"
     objecttolerance="10"
     gridtolerance="10"
     guidetolerance="10"
     inkscape:pageopacity="0"
     inkscape:pageshadow="2"
     inkscape:window-width="679"
     inkscape:window-height="480"
     id="namedview4"
     showgrid="false"
     inkscape:zoom="11.8"
     inkscape:cx="10"
     inkscape:cy="10"
     inkscape:window-x="160"
     inkscape:window-y="55"
     inkscape:window-maximized="0"
     inkscape:current-layer="g10" /><g
     id="g10"
     inkscape:groupmode="layer"
     inkscape:label="General-2c"
     transform="matrix(1.25,0,0,-1.25,0,20)"><g
       id="g12"
       transform="translate(0,16.0002)"><path
         d="M 0,0 0,-1 0,-4.001 0,-5 l 0,-4 4,0 2,0 0,1 -2,0 0,1 2,0 0,1 -2,0 0,1 2,0 0,0.999 -2,0 -2,0 0,1 1,0 1,0 2,0 0,1.001 -2,0 0,1 2,0 0,1 -6,0 z"
         style="fill:#3a4047;fill-opacity:1;fill-rule:nonzero;stroke:none"
         id="path14"
         inkscape:connector-curvature="0" /></g><g
       id="g16"
       transform="translate(14.0004,6.0003)"><path
         d="m 0,0 0,-2.001 -1.001,0 0,2.001 -1,0 0,-2.001 0,-2 -1,0 0,2 0,2.001 -1,0 0,-2.001 -0.999,0 0,2.001 -1,0 0,-2.001 -1,0 0,2.001 -1,0 0,-2.001 0,-2 -1,0 0,2 0,2.001 -1.001,0 0,-2.001 -1,0 0,2.001 -1,0 0,-2.001 -1,0 0,2.001 -0.999,0 0,-2.001 0,-2 0,-1.999 15,0 0,1.999 0,2 L 1,0 0,0 Z"
         style="fill:#3a4047;fill-opacity:1;fill-rule:nonzero;stroke:none"
         id="path18"
         inkscape:connector-curvature="0" /></g></g></svg>